<svg xmlns="http://www.w3.org/2000/svg" xmlns:xlink="http://www.w3.org/1999/xlink" viewBox="0,0,256,256" width="96px" height="96px" fill-rule="nonzero"><defs><linearGradient x1="4.222" y1="4.222" x2="19.778" y2="19.778" gradientUnits="userSpaceOnUse" id="color-1"><stop offset="0" stop-color="#3ecf8e"></stop><stop offset="1" stop-color="#15593b"></stop></linearGradient><linearGradient x1="1" y1="12" x2="23" y2="12" gradientUnits="userSpaceOnUse" id="color-2"><stop offset="0" stop-color="#3ecf8e"></stop><stop offset="0.493" stop-color="#ffffff" stop-opacity="0"></stop><stop offset="0.997" stop-color="#15593b"></stop></linearGradient><linearGradient x1="9.172" y1="9.172" x2="14.828" y2="14.828" gradientUnits="userSpaceOnUse" id="color-3"><stop offset="0" stop-color="#3ecf8e"></stop><stop offset="1" stop-color="#15593b"></stop></linearGradient></defs><g transform=""><g fill="#000000" fill-rule="nonzero" stroke="none" stroke-width="1" stroke-linecap="butt" stroke-linejoin="miter" stroke-miterlimit="10" stroke-dasharray="" stroke-dashoffset="0" font-family="none" font-weight="none" font-size="none" text-anchor="none" style="mix-blend-mode: normal"><path d="M0,256v-256h256v256z" id="bgRectangle"></path></g><g fill="none" fill-rule="nonzero" stroke="none" stroke-width="1" stroke-linecap="butt" stroke-linejoin="miter" stroke-miterlimit="10" stroke-dasharray="" stroke-dashoffset="0" font-family="none" font-weight="none" font-size="none" text-anchor="none" style="mix-blend-mode: normal"><g transform="scale(10.66667,10.66667)"><path d="M22,11h-1.059v0c-0.193,-1.733 -0.881,-3.315 -1.917,-4.61l0.755,-0.755c0.391,-0.391 0.391,-1.023 0,-1.414c-0.391,-0.391 -1.024,-0.391 -1.414,0l-0.755,0.755c-1.295,-1.036 -2.877,-1.724 -4.61,-1.917v0v-1.059c0,-0.552 -0.447,-1 -1,-1c-0.553,0 -1,0.448 -1,1v1.059v0c-1.733,0.193 -3.315,0.881 -4.609,1.917l-0.755,-0.754c-0.391,-0.391 -1.023,-0.391 -1.414,0c-0.391,0.391 -0.391,1.024 0,1.414l0.755,0.755c-1.037,1.294 -1.725,2.877 -1.918,4.609v0h-1.059c-0.552,0 -1,0.447 -1,1c0,0.553 0.448,1 1,1h1.059v0c0.193,1.733 0.881,3.315 1.917,4.61l-0.755,0.755c-0.391,0.391 -0.391,1.023 0,1.414c0.391,0.391 1.024,0.391 1.414,0l0.755,-0.755c1.295,1.036 2.877,1.724 4.61,1.917v0v1.059c0,0.552 0.447,1 1,1c0.553,0 1,-0.448 1,-1v-1.059v0c1.733,-0.193 3.315,-0.882 4.609,-1.917l0.755,0.755c0.391,0.391 1.023,0.391 1.414,0c0.391,-0.391 0.391,-1.024 0,-1.414l-0.755,-0.755c1.036,-1.295 1.725,-2.877 1.917,-4.61v0h1.06c0.552,0 1,-0.447 1,-1c0,-0.553 -0.448,-1 -1,-1zM6.402,7.816l2.164,2.164c-0.186,0.316 -0.33,0.656 -0.425,1.02h-3.061c0.17,-1.183 0.636,-2.269 1.322,-3.184zM5.08,13h3.062c0.094,0.364 0.238,0.704 0.424,1.02l-2.164,2.164c-0.686,-0.915 -1.152,-2.001 -1.322,-3.184zM11,18.92c-1.183,-0.17 -2.269,-0.636 -3.184,-1.322l2.164,-2.164c0.316,0.186 0.656,0.33 1.02,0.424zM11,8.141c-0.364,0.094 -0.704,0.238 -1.02,0.424l-2.164,-2.163c0.915,-0.686 2.001,-1.152 3.184,-1.322zM18.92,11h-3.062c-0.094,-0.364 -0.238,-0.704 -0.424,-1.02l2.164,-2.164c0.686,0.915 1.152,2.001 1.322,3.184zM18.92,13c-0.17,1.183 -0.636,2.269 -1.322,3.184l-2.164,-2.164c0.186,-0.316 0.33,-0.656 0.424,-1.02zM13,5.08c1.183,0.17 2.269,0.636 3.184,1.322l-2.164,2.164c-0.316,-0.186 -0.656,-0.33 -1.02,-0.425zM13,18.92v-3.062c0.364,-0.094 0.704,-0.238 1.02,-0.424l2.164,2.164c-0.915,0.686 -2.001,1.152 -3.184,1.322z" fill="url(#color-1)"></path><path d="M12,1.5c0.276,0 0.5,0.224 0.5,0.5v1.059v0.448l0.445,0.049c1.587,0.176 3.092,0.803 4.352,1.811l0.349,0.28l0.316,-0.316l0.755,-0.755c0.095,-0.094 0.22,-0.147 0.354,-0.147c0.133,0 0.259,0.052 0.354,0.147c0.195,0.195 0.195,0.512 0,0.707l-0.755,0.754l-0.317,0.316l0.28,0.349c1.008,1.26 1.634,2.765 1.811,4.352l0.049,0.445h0.448h1.059c0.276,0 0.5,0.224 0.5,0.5c0,0.276 -0.224,0.5 -0.5,0.5h-1.059h-0.448l-0.049,0.445c-0.176,1.588 -0.803,3.093 -1.811,4.353l-0.28,0.349l0.317,0.316l0.755,0.755c0.195,0.195 0.195,0.512 0,0.707c-0.095,0.095 -0.22,0.147 -0.354,0.147c-0.134,0 -0.259,-0.052 -0.354,-0.147l-0.755,-0.755l-0.316,-0.316l-0.349,0.28c-1.26,1.008 -2.765,1.635 -4.352,1.811l-0.445,0.05v0.447v1.059c0,0.276 -0.224,0.5 -0.5,0.5c-0.276,0 -0.5,-0.224 -0.5,-0.5v-1.059v-0.448l-0.445,-0.049c-1.587,-0.176 -3.092,-0.803 -4.352,-1.811l-0.349,-0.28l-0.317,0.317l-0.755,0.755c-0.095,0.095 -0.22,0.147 -0.354,0.147c-0.133,0 -0.259,-0.052 -0.354,-0.147c-0.195,-0.195 -0.195,-0.512 0,-0.707l0.755,-0.755l0.317,-0.316l-0.28,-0.349c-1.008,-1.26 -1.634,-2.765 -1.811,-4.352l-0.049,-0.446h-0.447h-1.059c-0.276,0 -0.5,-0.224 -0.5,-0.5c0,-0.276 0.224,-0.5 0.5,-0.5h1.059h0.448l0.049,-0.445c0.176,-1.588 0.803,-3.093 1.811,-4.353l0.28,-0.349l-0.317,-0.316l-0.755,-0.754c-0.195,-0.195 -0.195,-0.512 0,-0.707c0.095,-0.095 0.22,-0.147 0.354,-0.147c0.134,0 0.259,0.052 0.354,0.147l0.754,0.754l0.316,0.316l0.349,-0.28c1.26,-1.008 2.765,-1.635 4.352,-1.811l0.446,-0.049v-0.447v-1.059c0,-0.276 0.224,-0.5 0.5,-0.5M14.1,9.193l0.274,-0.274l2.164,-2.164l0.408,-0.408l-0.462,-0.346c-1,-0.749 -2.18,-1.239 -3.413,-1.416l-0.571,-0.082v0.577v3.062v0.387l0.375,0.097c0.311,0.08 0.611,0.205 0.892,0.371l0.333,0.196M9.9,9.193l0.334,-0.197c0.281,-0.166 0.581,-0.291 0.892,-0.371l0.374,-0.097v-0.387v-3.061v-0.577l-0.571,0.082c-1.233,0.178 -2.413,0.667 -3.413,1.416l-0.462,0.346l0.408,0.408l2.164,2.164l0.274,0.274M4.503,11.5h0.577h3.062h0.387l0.097,-0.375c0.08,-0.311 0.205,-0.611 0.371,-0.892l0.196,-0.333l-0.274,-0.274l-2.164,-2.164l-0.408,-0.408l-0.346,0.462c-0.749,1 -1.239,2.18 -1.416,3.413l-0.082,0.571M15.472,11.5h0.387h3.062h0.577l-0.082,-0.571c-0.178,-1.233 -0.667,-2.413 -1.417,-3.413l-0.346,-0.462l-0.408,0.408l-2.164,2.164l-0.274,0.274l0.197,0.334c0.166,0.281 0.29,0.581 0.371,0.892l0.097,0.374M17.653,16.946l0.346,-0.462c0.749,-0.999 1.239,-2.18 1.417,-3.413l0.082,-0.571h-0.578h-3.062h-0.387l-0.097,0.375c-0.08,0.311 -0.205,0.61 -0.371,0.892l-0.196,0.333l0.274,0.274l2.164,2.164l0.408,0.408M6.347,16.946l0.408,-0.408l2.164,-2.164l0.274,-0.274l-0.197,-0.334c-0.166,-0.281 -0.29,-0.581 -0.371,-0.892l-0.097,-0.374h-0.387h-3.061h-0.577l0.082,0.571c0.178,1.233 0.667,2.413 1.416,3.413l0.346,0.462M12.5,19.497l0.571,-0.082c1.233,-0.178 2.413,-0.667 3.413,-1.416l0.462,-0.346l-0.408,-0.408l-2.164,-2.164l-0.274,-0.274l-0.334,0.197c-0.281,0.166 -0.581,0.291 -0.892,0.371l-0.374,0.097v0.387v3.062v0.576M11.5,19.497v-0.577v-3.062v-0.387l-0.375,-0.097c-0.31,-0.08 -0.61,-0.205 -0.892,-0.371l-0.333,-0.196l-0.274,0.274l-2.164,2.164l-0.408,0.408l0.462,0.346c1,0.749 2.18,1.239 3.413,1.416l0.571,0.082M12,1c-0.553,0 -1,0.448 -1,1v1.059v0c-1.733,0.193 -3.315,0.881 -4.609,1.917l-0.755,-0.754c-0.195,-0.195 -0.451,-0.293 -0.707,-0.293c-0.256,0 -0.512,0.098 -0.707,0.293c-0.391,0.391 -0.391,1.024 0,1.414l0.755,0.755c-1.037,1.294 -1.725,2.877 -1.918,4.609v0h-1.059c-0.552,0 -1,0.447 -1,1c0,0.553 0.448,1 1,1h1.059v0c0.193,1.733 0.881,3.315 1.917,4.61l-0.755,0.755c-0.391,0.391 -0.391,1.023 0,1.414c0.195,0.195 0.451,0.293 0.707,0.293c0.256,0 0.512,-0.098 0.707,-0.293l0.755,-0.755c1.295,1.036 2.877,1.724 4.61,1.917v0v1.059c0,0.552 0.447,1 1,1c0.553,0 1,-0.448 1,-1v-1.059v0c1.733,-0.193 3.315,-0.882 4.609,-1.917l0.755,0.755c0.195,0.195 0.451,0.293 0.707,0.293c0.256,0 0.512,-0.098 0.707,-0.293c0.391,-0.391 0.391,-1.024 0,-1.414l-0.755,-0.755c1.036,-1.295 1.725,-2.877 1.917,-4.61v0h1.06c0.552,0 1,-0.447 1,-1c0,-0.553 -0.448,-1 -1,-1h-1.059v0c-0.193,-1.733 -0.881,-3.315 -1.917,-4.61l0.755,-0.755c0.391,-0.391 0.391,-1.023 0,-1.414c-0.195,-0.195 -0.451,-0.293 -0.707,-0.293c-0.256,0 -0.512,0.098 -0.707,0.293l-0.755,0.755c-1.295,-1.036 -2.877,-1.724 -4.61,-1.917v0v-1.059c0,-0.552 -0.447,-1 -1,-1zM14.02,8.566c-0.316,-0.186 -0.656,-0.33 -1.02,-0.425v-3.061c1.183,0.17 2.269,0.636 3.184,1.322l-2.164,2.164zM9.98,8.566l-2.164,-2.164c0.915,-0.686 2.001,-1.152 3.184,-1.322v3.062c-0.364,0.094 -0.704,0.238 -1.02,0.424zM15.859,11c-0.094,-0.364 -0.238,-0.704 -0.424,-1.02l2.164,-2.164c0.685,0.915 1.151,2.001 1.321,3.184h-3.061zM5.08,11c0.17,-1.183 0.636,-2.269 1.322,-3.184l2.164,2.164c-0.186,0.316 -0.33,0.656 -0.425,1.02h-3.061zM17.598,16.184l-2.164,-2.164c0.186,-0.316 0.33,-0.656 0.424,-1.02h3.062c-0.17,1.183 -0.636,2.269 -1.322,3.184zM6.402,16.184c-0.686,-0.915 -1.152,-2.001 -1.322,-3.184h3.062c0.094,0.364 0.238,0.704 0.424,1.02l-2.164,2.164zM13,18.92v-3.062c0.364,-0.094 0.704,-0.238 1.02,-0.424l2.164,2.164c-0.915,0.686 -2.001,1.152 -3.184,1.322zM11,18.92c-1.183,-0.17 -2.269,-0.636 -3.184,-1.322l2.164,-2.164c0.316,0.186 0.656,0.33 1.02,0.424v3.062z" fill="url(#color-2)"></path><g fill="url(#color-3)"><circle cx="12" cy="12" r="4"></circle></g></g></g></g></svg>